<?xml version="1.0" encoding="UTF-8"?>
<mxfile host="app.diagrams.net" modified="2023-11-17T05:10:06.378Z" agent="Mozilla/5.0 (Windows NT 10.0; Win64; x64) AppleWebKit/537.36 (KHTML, like Gecko) Chrome/119.0.0.0 Safari/537.36" etag="Fv8jT2rssbQqV3-ArDjN" version="22.1.1" type="google">
  <diagram id="XRO4UHCeAvfe0TGdRGkB" name="Page-1">
    <mxGraphModel dx="2074" dy="1142" grid="1" gridSize="10" guides="1" tooltips="1" connect="1" arrows="1" fold="1" page="1" pageScale="1" pageWidth="2339" pageHeight="3300" math="0" shadow="0">
      <root>
        <mxCell id="0" />
        <mxCell id="1" parent="0" />
        <mxCell id="vt0vl1Ip0CLTtD81e1Z3-2" value="SAP BTP" style="rounded=0;whiteSpace=wrap;html=1;fillColor=#EBF8FF;strokeColor=#6c8ebf;verticalAlign=bottom;labelPosition=center;verticalLabelPosition=top;align=center;fontStyle=1;fontSize=15;" parent="1" vertex="1">
          <mxGeometry x="120" y="120" width="480" height="600" as="geometry" />
        </mxCell>
        <mxCell id="horBUBhDTgrkN0Ev88ST-3" value="Subaccount" style="rounded=0;whiteSpace=wrap;html=1;dashed=1;verticalAlign=bottom;labelPosition=center;verticalLabelPosition=top;align=left;fontStyle=1" parent="1" vertex="1">
          <mxGeometry x="160" y="159" width="400" height="401" as="geometry" />
        </mxCell>
        <mxCell id="vt0vl1Ip0CLTtD81e1Z3-15" value="ðŸ”’" style="edgeStyle=orthogonalEdgeStyle;rounded=0;orthogonalLoop=1;jettySize=auto;html=1;exitX=1;exitY=0.5;exitDx=0;exitDy=0;exitPerimeter=0;entryX=0;entryY=0.5;entryDx=0;entryDy=0;strokeWidth=1;fontColor=#000000;startArrow=none;startFill=0;endArrow=classic;endFill=1;fontSize=12;labelBackgroundColor=#EBF8FF;" parent="1" source="vt0vl1Ip0CLTtD81e1Z3-16" target="TGFZ5FQla8aGa5NZ8bja-7" edge="1">
          <mxGeometry relative="1" as="geometry">
            <mxPoint x="200" y="204" as="targetPoint" />
            <Array as="points">
              <mxPoint x="140" y="285" />
              <mxPoint x="140" y="221" />
            </Array>
          </mxGeometry>
        </mxCell>
        <mxCell id="ue_vW4s7sXcAaxeZuPDn-10" value="ðŸ”’" style="edgeStyle=orthogonalEdgeStyle;rounded=0;orthogonalLoop=1;jettySize=auto;html=1;exitX=0.56;exitY=1;exitDx=0;exitDy=0;exitPerimeter=0;entryX=0;entryY=0.5;entryDx=0;entryDy=0;" edge="1" parent="1" source="vt0vl1Ip0CLTtD81e1Z3-16" target="TGFZ5FQla8aGa5NZ8bja-6">
          <mxGeometry x="-0.5066" relative="1" as="geometry">
            <mxPoint as="offset" />
          </mxGeometry>
        </mxCell>
        <mxCell id="horBUBhDTgrkN0Ev88ST-24" value="OData/REST" style="edgeStyle=orthogonalEdgeStyle;rounded=0;orthogonalLoop=1;jettySize=auto;html=1;exitX=0;exitY=0.5;exitDx=0;exitDy=0;entryX=0.5;entryY=0;entryDx=0;entryDy=0;fontSize=10;" parent="1" source="TGFZ5FQla8aGa5NZ8bja-9" target="ue_vW4s7sXcAaxeZuPDn-13" edge="1">
          <mxGeometry x="0.4261" relative="1" as="geometry">
            <mxPoint x="298" y="340" as="sourcePoint" />
            <mxPoint as="offset" />
            <mxPoint x="224" y="460" as="targetPoint" />
          </mxGeometry>
        </mxCell>
        <mxCell id="horBUBhDTgrkN0Ev88ST-25" style="edgeStyle=orthogonalEdgeStyle;rounded=0;orthogonalLoop=1;jettySize=auto;html=1;exitX=1;exitY=0.5;exitDx=0;exitDy=0;entryX=0;entryY=0.5;entryDx=0;entryDy=0;" parent="1" source="ue_vW4s7sXcAaxeZuPDn-13" target="TGFZ5FQla8aGa5NZ8bja-4" edge="1">
          <mxGeometry relative="1" as="geometry">
            <mxPoint x="350" y="464" as="targetPoint" />
            <mxPoint x="248" y="484" as="sourcePoint" />
          </mxGeometry>
        </mxCell>
        <mxCell id="horBUBhDTgrkN0Ev88ST-34" value="OData/REST/GraphQL" style="edgeStyle=orthogonalEdgeStyle;rounded=0;orthogonalLoop=1;jettySize=auto;html=1;exitX=1;exitY=0.5;exitDx=0;exitDy=0;entryX=1;entryY=0.5;entryDx=0;entryDy=0;fontSize=10;labelBorderColor=none;labelBackgroundColor=default;" parent="1" source="horBUBhDTgrkN0Ev88ST-27" target="TGFZ5FQla8aGa5NZ8bja-9" edge="1">
          <mxGeometry x="0.37" y="1" relative="1" as="geometry">
            <mxPoint x="1" as="offset" />
            <mxPoint x="342" y="340" as="targetPoint" />
            <Array as="points">
              <mxPoint x="540" y="221" />
              <mxPoint x="540" y="360" />
            </Array>
          </mxGeometry>
        </mxCell>
        <mxCell id="horBUBhDTgrkN0Ev88ST-27" value="HTML5 App Repo" style="shape=image;verticalLabelPosition=bottom;verticalAlign=top;imageAspect=0;aspect=fixed;image=https://digitalmarketplace-sapcpprd.s3.eu-central-1.amazonaws.com/hv7gQxJXAVjT3iBoj5jx-1iXEZjbESAvc0X3HRkFTSqzK0syjVQqslNgpoZ97Dd8.svg;fontColor=#0A6ED1;fontStyle=1" parent="1" vertex="1">
          <mxGeometry x="450" y="197" width="48" height="48" as="geometry" />
        </mxCell>
        <mxCell id="ue_vW4s7sXcAaxeZuPDn-17" value="ðŸ”’" style="edgeStyle=orthogonalEdgeStyle;rounded=0;orthogonalLoop=1;jettySize=auto;html=1;exitX=1;exitY=0.5;exitDx=0;exitDy=0;entryX=0;entryY=0.5;entryDx=0;entryDy=0;" edge="1" parent="1" source="TGFZ5FQla8aGa5NZ8bja-4" target="n6dLeU8ncCITZSXHt6QS-13">
          <mxGeometry x="0.211" relative="1" as="geometry">
            <Array as="points">
              <mxPoint x="640" y="484" />
              <mxPoint x="640" y="573" />
            </Array>
            <mxPoint as="offset" />
          </mxGeometry>
        </mxCell>
        <mxCell id="TGFZ5FQla8aGa5NZ8bja-4" value="Connectivity" style="shape=image;verticalLabelPosition=bottom;verticalAlign=top;imageAspect=0;aspect=fixed;image=https://digitalmarketplace-sapcpprd.s3.eu-central-1.amazonaws.com/DSW4zoy3YUwLmE7RK0BMlBuldrh4OHbg-4eZdXrtxcA-Axh14G7QL6EPuzQ1UJwf.svg;fontColor=#0A6ED1;fontStyle=1" parent="1" vertex="1">
          <mxGeometry x="450" y="460" width="48" height="48" as="geometry" />
        </mxCell>
        <mxCell id="ue_vW4s7sXcAaxeZuPDn-11" value="ðŸ”’" style="edgeStyle=orthogonalEdgeStyle;rounded=0;orthogonalLoop=1;jettySize=auto;html=1;exitX=0.5;exitY=0;exitDx=0;exitDy=0;entryX=0.5;entryY=1;entryDx=0;entryDy=0;labelBackgroundColor=#EBF8FF;fontColor=#EBF8FF;" edge="1" parent="1" source="TGFZ5FQla8aGa5NZ8bja-6" target="horBUBhDTgrkN0Ev88ST-3">
          <mxGeometry relative="1" as="geometry" />
        </mxCell>
        <mxCell id="ue_vW4s7sXcAaxeZuPDn-16" value="ðŸ”’" style="edgeStyle=orthogonalEdgeStyle;rounded=0;orthogonalLoop=1;jettySize=auto;html=1;exitX=1;exitY=0.5;exitDx=0;exitDy=0;entryX=1;entryY=0.5;entryDx=0;entryDy=0;" edge="1" parent="1" source="TGFZ5FQla8aGa5NZ8bja-6" target="n6dLeU8ncCITZSXHt6QS-1">
          <mxGeometry x="0.6732" relative="1" as="geometry">
            <Array as="points">
              <mxPoint x="640" y="664" />
              <mxPoint x="640" y="720" />
              <mxPoint x="960" y="720" />
              <mxPoint x="960" y="260" />
            </Array>
            <mxPoint as="offset" />
          </mxGeometry>
        </mxCell>
        <mxCell id="ue_vW4s7sXcAaxeZuPDn-12" value="ðŸ”’" style="edgeStyle=orthogonalEdgeStyle;rounded=0;orthogonalLoop=1;jettySize=auto;html=1;exitX=1;exitY=0.5;exitDx=0;exitDy=0;entryX=1;entryY=0.5;entryDx=0;entryDy=0;" edge="1" parent="1" source="TGFZ5FQla8aGa5NZ8bja-6" target="n6dLeU8ncCITZSXHt6QS-13">
          <mxGeometry x="0.1601" relative="1" as="geometry">
            <Array as="points">
              <mxPoint x="640" y="664" />
              <mxPoint x="640" y="720" />
              <mxPoint x="960" y="720" />
              <mxPoint x="960" y="573" />
            </Array>
            <mxPoint as="offset" />
          </mxGeometry>
        </mxCell>
        <mxCell id="TGFZ5FQla8aGa5NZ8bja-6" value="SAP Cloud Identity Services" style="shape=image;verticalLabelPosition=bottom;verticalAlign=top;imageAspect=0;aspect=fixed;image=https://digitalmarketplace-sapcpprd.s3.eu-central-1.amazonaws.com/yfUU_1hMAIcnqE3Ok5hhmTwjCmHahTDFu6X3dFunuK3RmH33yfJlqEHS0wBk_bAj.svg;fontColor=#0A6ED1;fontStyle=1" parent="1" vertex="1">
          <mxGeometry x="336" y="640" width="48" height="48" as="geometry" />
        </mxCell>
        <mxCell id="TGFZ5FQla8aGa5NZ8bja-8" style="edgeStyle=orthogonalEdgeStyle;rounded=0;orthogonalLoop=1;jettySize=auto;html=1;exitX=1;exitY=0.5;exitDx=0;exitDy=0;entryX=0;entryY=0.5;entryDx=0;entryDy=0;" parent="1" source="TGFZ5FQla8aGa5NZ8bja-7" target="horBUBhDTgrkN0Ev88ST-27" edge="1">
          <mxGeometry relative="1" as="geometry" />
        </mxCell>
        <mxCell id="TGFZ5FQla8aGa5NZ8bja-7" value="SAP Build&#xa;Work Zone" style="shape=image;verticalLabelPosition=bottom;verticalAlign=top;imageAspect=0;aspect=fixed;image=data:image/svg+xml,PHN2ZyB4bWxucz0iaHR0cDovL3d3dy53My5vcmcvMjAwMC9zdmciIGZpbGw9Im5vbmUiIHZpZXdCb3g9IjAgMCA0OSA0OSI+PHBhdGggZmlsbD0idXJsKCNwYWludDBfcmFkaWFsXzI2MjJfMjgyMCkiIGZpbGwtcnVsZT0iZXZlbm9kZCIgZD0iTTkuNTgyIDI1LjI3M2EyLjQgMi40IDAgMCAxIDIuNC0yLjRoNy4wNzFhMi40IDIuNCAwIDAgMSAyLjQgMi40djguNTkyYTIuNCAyLjQgMCAwIDEtMi40IDIuNGgtNy4wN2EyLjQgMi40IDAgMCAxLTIuNC0yLjR2LTguNTkyem0xNC44NzEgMGEyLjQgMi40IDAgMCAxIDIuNC0yLjRoMS4yOThhMi40IDIuNCAwIDAgMSAyLjQgMi40di4yOTlhMi40IDIuNCAwIDAgMS0yLjQgMi40aC0xLjI5OGEyLjQgMi40IDAgMCAxLTIuNC0yLjR2LS4yOTl6bTIuNCA1LjY5OWEyLjQgMi40IDAgMCAwLTIuNCAyLjR2LjQ5M2EyLjQgMi40IDAgMCAwIDIuNCAyLjRoMS4yOThhMi40IDIuNCAwIDAgMCAyLjQtMi40di0uNDkzYTIuNCAyLjQgMCAwIDAtMi40LTIuNGgtMS4yOTh6bTYuNjQ3LTUuNjk5YTIuNCAyLjQgMCAwIDEgMi40LTIuNGgxLjI5OGEyLjQgMi40IDAgMCAxIDIuNCAyLjR2LjI5OWEyLjQgMi40IDAgMCAxLTIuNCAyLjRIMzUuOWEyLjQgMi40IDAgMCAxLTIuNC0yLjR2LS4yOTl6bTIuNCA1LjY5OWEyLjQgMi40IDAgMCAwLTIuNCAyLjR2LjQ5M2EyLjQgMi40IDAgMCAwIDIuNCAyLjRoMS4yOThhMi40IDIuNCAwIDAgMCAyLjQtMi40di0uNDkzYTIuNCAyLjQgMCAwIDAtMi40LTIuNEgzNS45eiIgY2xpcC1ydWxlPSJldmVub2RkIi8+PHBhdGggZmlsbD0idXJsKCNwYWludDFfcmFkaWFsXzI2MjJfMjgyMCkiIGZpbGwtcnVsZT0iZXZlbm9kZCIgZD0iTTQxLjI1IDcuOTk0SDcuNzE5YTIuNCAyLjQgMCAwIDAtMi40IDIuNHYzLjU1NWgyNi44NTJhMi40IDIuNCAwIDAgMSAwIDQuOEg1LjMydjE5LjI2M2EyLjQgMi40IDAgMCAwIDIuNCAyLjRoMTEuNjk0YTIuNCAyLjQgMCAxIDEgMCA0LjhINy43MTlhNy4yIDcuMiAwIDAgMS03LjItNy4yVjEwLjM5NWE3LjIgNy4yIDAgMCAxIDcuMi03LjJoMzMuNTNhNy4yIDcuMiAwIDAgMSA3LjIgNy4ydjkuNTA4YTIuNCAyLjQgMCAxIDEtNC44IDB2LTkuNTA4YTIuNCAyLjQgMCAwIDAtMi40LTIuNHoiIGNsaXAtcnVsZT0iZXZlbm9kZCIvPjxkZWZzPjxyYWRpYWxHcmFkaWVudCBpZD0icGFpbnQwX3JhZGlhbF8yNjIyXzI4MjAiIGN4PSIwIiBjeT0iMCIgcj0iMSIgZ3JhZGllbnRUcmFuc2Zvcm09InJvdGF0ZSgyNC4wNDUgLTUxLjMxNSA0NS44NTMpIHNjYWxlKDIyLjg5NDYgMTUuNTI2MykiIGdyYWRpZW50VW5pdHM9InVzZXJTcGFjZU9uVXNlIj48c3RvcCBzdG9wLWNvbG9yPSIjMTM0OEZGIi8+PHN0b3Agb2Zmc2V0PSIxIiBzdG9wLWNvbG9yPSIjMDYyMzhEIi8+PC9yYWRpYWxHcmFkaWVudD48cmFkaWFsR3JhZGllbnQgaWQ9InBhaW50MV9yYWRpYWxfMjYyMl8yODIwIiBjeD0iMCIgY3k9IjAiIHI9IjEiIGdyYWRpZW50VHJhbnNmb3JtPSJtYXRyaXgoMzMuMTg0NzYgMjkuNDE1MyAtNTUuMTc5NzggNjIuMjUwODYgNy45NTIgOS4zNjQpIiBncmFkaWVudFVuaXRzPSJ1c2VyU3BhY2VPblVzZSI+PHN0b3Agc3RvcC1jb2xvcj0iIzAxOTVGRiIvPjxzdG9wIG9mZnNldD0iMSIgc3RvcC1jb2xvcj0iIzExNDdFOSIvPjwvcmFkaWFsR3JhZGllbnQ+PC9kZWZzPjwvc3ZnPg==;fontColor=#0A6ED1;fontStyle=1" parent="1" vertex="1">
          <mxGeometry x="220" y="197" width="48" height="48" as="geometry" />
        </mxCell>
        <mxCell id="TGFZ5FQla8aGa5NZ8bja-9" value="CAPM app" style="shape=image;verticalLabelPosition=bottom;verticalAlign=top;imageAspect=0;aspect=fixed;image=https://digitalmarketplace-sapcpprd.s3.eu-central-1.amazonaws.com/MfBx5cdlo5e3uk3cN8GGOHbv0295Ntbz6rL3EsFTxqjkhMYoD27-aG6qRMAA2P0M.svg;fontColor=#0A6ED1;fontStyle=1" parent="1" vertex="1">
          <mxGeometry x="336" y="335.5" width="48" height="48" as="geometry" />
        </mxCell>
        <mxCell id="TexBZRGPUkDmq5xwkHwC-1" value="&lt;h1 style=&quot;border-color: var(--border-color);&quot;&gt;Examples&lt;/h1&gt;&lt;h1&gt;&lt;p style=&quot;border-color: var(--border-color); font-size: 12px; font-weight: 400;&quot;&gt;Side-by-Side extensions to keep the Core Clean.&lt;br&gt;&lt;/p&gt;&lt;p style=&quot;border-color: var(--border-color); font-size: 12px; font-weight: 400;&quot;&gt;An application that automatically creates ServiceNow tickets whenever a runtime issue happens.&lt;/p&gt;&lt;p style=&quot;border-color: var(--border-color); font-size: 12px; font-weight: 400;&quot;&gt;&lt;span style=&quot;background-color: initial;&quot;&gt;An application for plant maintenance using data from both SAP S/4HANA and SAP Fieldglass.&lt;/span&gt;&lt;br&gt;&lt;/p&gt;&lt;/h1&gt;" style="text;html=1;strokeColor=none;fillColor=none;spacing=5;spacingTop=-20;whiteSpace=wrap;overflow=hidden;rounded=0;" parent="1" vertex="1">
          <mxGeometry x="438" y="760" width="280" height="360" as="geometry" />
        </mxCell>
        <mxCell id="n6dLeU8ncCITZSXHt6QS-1" value="On-Premise" style="rounded=0;whiteSpace=wrap;html=1;fillColor=#EBF8FF;fontColor=#000000;strokeColor=#0A6ED1;fontStyle=1;labelPosition=center;verticalLabelPosition=top;align=center;verticalAlign=bottom;fontSize=15;" parent="1" vertex="1">
          <mxGeometry x="720" y="120" width="200" height="280" as="geometry" />
        </mxCell>
        <mxCell id="ue_vW4s7sXcAaxeZuPDn-9" style="edgeStyle=orthogonalEdgeStyle;rounded=0;orthogonalLoop=1;jettySize=auto;html=1;exitX=0.5;exitY=0;exitDx=0;exitDy=0;entryX=0.5;entryY=1;entryDx=0;entryDy=0;" edge="1" parent="1" source="n6dLeU8ncCITZSXHt6QS-5" target="n6dLeU8ncCITZSXHt6QS-12">
          <mxGeometry relative="1" as="geometry" />
        </mxCell>
        <mxCell id="n6dLeU8ncCITZSXHt6QS-5" value="SAP Cloud Connector" style="shape=image;verticalLabelPosition=bottom;verticalAlign=top;imageAspect=0;aspect=fixed;image=data:image/svg+xml,PHN2ZyB4bWxucz0iaHR0cDovL3d3dy53My5vcmcvMjAwMC9zdmciIGlkPSJjbG91ZGNvbm5lY3RvciIgdmlld0JveD0iNC4wMDAwMDE5MDczNDg2MzMgMy45OTk5OTkwNDYzMjU2ODM2IDQ4IDQ3Ljk5OTk5NjE4NTMwMjczNCIgd2lkdGg9IjQ4IiBoZWlnaHQ9IjQ3Ljk5OTk5NjE4NTMwMjczNCI+PGRlZnM+PHN0eWxlPi5jbHMtMXtmaWxsOiMwNzRkOTI7fS5jbHMtMntmaWxsOiM3ZjdmN2Y7fTwvc3R5bGU+PC9kZWZzPjx0aXRsZT5jbG91ZGNvbm5lY3Rvcl9jaXJjbGU8L3RpdGxlPjxwYXRoIGNsYXNzPSJjbHMtMSIgZD0iTTI4LDZBMjIsMjIsMCwxLDEsNiwyOCwyMi4wMjUsMjIuMDI1LDAsMCwxLDI4LDZtMC0yQTI0LDI0LDAsMSwwLDUyLDI4LDI0LDI0LDAsMCwwLDI4LDRaIi8+PHBhdGggY2xhc3M9ImNscy0yIiBkPSJNMjIuODE0LDE1Ljc1MUEzLjc2OCwzLjc2OCwwLDAsMSwyNi4yMzUsMTguMUwyNywyMC4wMjNsMS43NjctMS4wNjZhMi4yODcsMi4yODcsMCwwLDEsMS4xOTItLjM0NSwyLjMyNiwyLjMyNiwwLDAsMSwyLjI4MywxLjlsLjE2OC44OTIuODI2LjM3N2EzLjEyMSwzLjEyMSwwLDAsMSwxLjc1LDIuNzI0SDM2Ljc1YTQuODc2LDQuODc2LDAsMCwwLTIuNzkxLTQuMzE3LDQuMDQ5LDQuMDQ5LDAsMCwwLTYuMS0yLjcyNUE1LjUxNCw1LjUxNCwwLDAsMCwyMi43ODIsMTRjLTYuMDM4LjMyLTUuNCw2LjItNS40LDYuMmE0Ljg5Myw0Ljg5MywwLDAsMCwxLjUyNCw5LjU0N0gyMi43NXYtMS43NUgxOC45MDZhMy4xNDMsMy4xNDMsMCwwLDEtLjk3Ny02LjEzNGwxLjM0Ni0uNDQzLS4xNTMtMS40MDhBNC43MzMsNC43MzMsMCwwLDEsMjAsMTYuOTI0LDMuOCwzLjgsMCwwLDEsMjIuODE0LDE1Ljc1MVoiLz48cGF0aCBjbGFzcz0iY2xzLTIiIGQ9Ik00Miw0MC45MDYsNDEuMDE2LDQyLDM3LjU3LDM4LjYwOWwuMTEtLjEwOS0xLjAzOS45ODRhNC41NDMsNC41NDMsMCwwLDEtMy4xMTgsMS4zNjgsNC4xMTIsNC4xMTIsMCwwLDEtMy4wNjItMS4zNjhsLTEuNDIyLTEuNDIyLTIuNTE2LTIuNDA2QTQuNDc0LDQuNDc0LDAsMCwxLDI1LjEsMzIuNGE0LjMwNSw0LjMwNSwwLDAsMSwxLjQyMS0zLjJsLjY1Ny0uNzExLTQuNDMtNC41MzksMS4xNDgtMS4yLDQuNDMsNC41MzkuNzExLS43MTFhMy42LDMuNiwwLDAsMSwxLjQyMi0xLjAzOSw0LjUxNiw0LjUxNiwwLDAsMSwxLjctLjMyOCw0LjcyNSw0LjcyNSwwLDAsMSwzLjI4MiwxLjM2N0wzNy45LDI5LjJ2LjA1NUwzOS4zMiwzMC42OGE0LjE3Myw0LjE3MywwLDAsMSwwLDYuMTc5bC0uNjU2LjY1N1pNMjYuODUyLDMyLjM3NWEyLjc2OCwyLjc2OCwwLDAsMCwuODc1LDIuMDIzbDEuMjU3LDEuMjU4TDM1LjQzOCwyOS4ybC0xLjMxMy0xLjQyMmEyLjY4NCwyLjY4NCwwLDAsMC0xLjk2OS0uODIsMi4yNTIsMi4yNTIsMCwwLDAtMS44Ljc2NmwtMi41NzEsMi43MzRBMi4zOCwyLjM4LDAsMCwwLDI2Ljg1MiwzMi4zNzVaTTM4LjExNywzNS42YTIuMjg0LDIuMjg0LDAsMCwwLC44MjEtMS44LDIuNTM4LDIuNTM4LDAsMCwwLS43NjYtMS44NTlsLTEuNTMxLTEuNDc3LTYuMzQ0LDYuNCwxLjM2NywxLjM2OGguMDU1bC4wNTQuMDU0YTIuMjI3LDIuMjI3LDAsMCwwLDEuNzUuODIxLDIuNjE0LDIuNjE0LDAsMCwwLDEuODYtLjg3NVoiLz48L3N2Zz4=;fontColor=#0A6ED1;fontStyle=1" parent="1" vertex="1">
          <mxGeometry x="796" y="310" width="48" height="48" as="geometry" />
        </mxCell>
        <mxCell id="n6dLeU8ncCITZSXHt6QS-6" value="" style="group;labelPosition=center;verticalLabelPosition=middle;align=center;verticalAlign=middle;dashed=1;strokeColor=default;container=0;" parent="1" connectable="0" vertex="1">
          <mxGeometry x="760" y="140" width="120" height="150" as="geometry" />
        </mxCell>
        <mxCell id="n6dLeU8ncCITZSXHt6QS-10" value="&amp;nbsp;ECC" style="rounded=1;whiteSpace=wrap;html=1;fontSize=12;glass=0;strokeWidth=1;shadow=0;" parent="1" vertex="1">
          <mxGeometry x="770" y="195" width="100" height="40" as="geometry" />
        </mxCell>
        <mxCell id="n6dLeU8ncCITZSXHt6QS-11" value="" style="sketch=0;aspect=fixed;html=1;points=[];align=center;image;fontSize=12;image=img/lib/mscae/SAP_HANA_on_Azure.svg;dashed=1;labelBackgroundColor=none;strokeColor=#000000;fontColor=#FFFFFF;fillColor=#000000;" parent="1" vertex="1">
          <mxGeometry x="770" y="195" width="41.66666666666667" height="20.833333333333336" as="geometry" />
        </mxCell>
        <mxCell id="n6dLeU8ncCITZSXHt6QS-12" value="Non-SAP" style="rounded=1;whiteSpace=wrap;html=1;fontSize=12;glass=0;strokeWidth=1;shadow=0;" parent="1" vertex="1">
          <mxGeometry x="770" y="245" width="100" height="40" as="geometry" />
        </mxCell>
        <mxCell id="n6dLeU8ncCITZSXHt6QS-13" value="Cloud" style="rounded=0;whiteSpace=wrap;html=1;fillColor=#EBF8FF;fontColor=#000000;strokeColor=#0A6ED1;fontStyle=1;labelPosition=center;verticalLabelPosition=top;align=center;verticalAlign=bottom;fontSize=15;" parent="1" vertex="1">
          <mxGeometry x="720" y="465" width="200" height="215" as="geometry" />
        </mxCell>
        <mxCell id="n6dLeU8ncCITZSXHt6QS-24" value="SuccessFactors" style="rounded=1;whiteSpace=wrap;html=1;fontSize=12;glass=0;strokeWidth=1;shadow=0;" parent="1" vertex="1">
          <mxGeometry x="770" y="480" width="100" height="40" as="geometry" />
        </mxCell>
        <mxCell id="ue_vW4s7sXcAaxeZuPDn-1" value="SAP Ariba" style="rounded=1;whiteSpace=wrap;html=1;fontSize=12;glass=0;strokeWidth=1;shadow=0;" vertex="1" parent="1">
          <mxGeometry x="770" y="530" width="100" height="40" as="geometry" />
        </mxCell>
        <mxCell id="ue_vW4s7sXcAaxeZuPDn-4" value="AWS" style="rounded=1;whiteSpace=wrap;html=1;fontSize=12;glass=0;strokeWidth=1;shadow=0;" vertex="1" parent="1">
          <mxGeometry x="770" y="580" width="100" height="40" as="geometry" />
        </mxCell>
        <mxCell id="ue_vW4s7sXcAaxeZuPDn-6" value="ServiceNow" style="rounded=1;whiteSpace=wrap;html=1;fontSize=12;glass=0;strokeWidth=1;shadow=0;" vertex="1" parent="1">
          <mxGeometry x="770" y="628" width="100" height="40" as="geometry" />
        </mxCell>
        <mxCell id="n6dLeU8ncCITZSXHt6QS-8" value="&amp;nbsp; &amp;nbsp; &amp;nbsp; S/4HANA" style="rounded=1;whiteSpace=wrap;html=1;fontSize=12;glass=0;strokeWidth=1;shadow=0;" parent="1" vertex="1">
          <mxGeometry x="770" y="145" width="100" height="40" as="geometry" />
        </mxCell>
        <mxCell id="n6dLeU8ncCITZSXHt6QS-9" value="" style="sketch=0;aspect=fixed;html=1;points=[];align=center;image;fontSize=12;image=img/lib/mscae/SAP_HANA_on_Azure.svg;dashed=1;labelBackgroundColor=none;strokeColor=#000000;fontColor=#FFFFFF;fillColor=#000000;" parent="1" vertex="1">
          <mxGeometry x="770" y="145" width="41.66666666666667" height="20.833333333333336" as="geometry" />
        </mxCell>
        <mxCell id="ue_vW4s7sXcAaxeZuPDn-13" value="SAP Integration Suite" style="shape=image;verticalLabelPosition=bottom;verticalAlign=top;imageAspect=0;aspect=fixed;image=https://digitalmarketplace-sapcpprd.s3.eu-central-1.amazonaws.com/Z9D57SIRCyJdD7wzka96poiiQYdkutSd8nstUei0Z3nNeL2qb2vYszK39v9AmvLk.svg;fontColor=#0A6ED1;fontStyle=1" vertex="1" parent="1">
          <mxGeometry x="220" y="460" width="48" height="48" as="geometry" />
        </mxCell>
        <mxCell id="vt0vl1Ip0CLTtD81e1Z3-1" value="Firewall" style="endArrow=none;html=1;rounded=0;fontColor=#000000;strokeWidth=3;strokeColor=#FF3333;fontSize=10;" parent="1" edge="1">
          <mxGeometry width="50" height="50" relative="1" as="geometry">
            <mxPoint x="680" y="400" as="sourcePoint" />
            <mxPoint x="680" y="120" as="targetPoint" />
          </mxGeometry>
        </mxCell>
        <mxCell id="ue_vW4s7sXcAaxeZuPDn-18" value="&lt;h1 style=&quot;border-color: var(--border-color);&quot;&gt;When should I use it?&lt;/h1&gt;&lt;h1&gt;&lt;p style=&quot;border-color: var(--border-color); font-size: 12px; font-weight: 400;&quot;&gt;When SAP Integration Suite is used to manage data access to on-premise and cloud systems, especially with&amp;nbsp;SAP Business Accelerator Hub.&lt;/p&gt;&lt;p style=&quot;border-color: var(--border-color); font-size: 12px; font-weight: 400;&quot;&gt;When a CAP app needs to connect to remote APIs both on-premise and cloud.&lt;/p&gt;&lt;/h1&gt;" style="text;html=1;strokeColor=none;fillColor=none;spacing=5;spacingTop=-20;whiteSpace=wrap;overflow=hidden;rounded=0;" vertex="1" parent="1">
          <mxGeometry x="80" y="760" width="280" height="280" as="geometry" />
        </mxCell>
        <mxCell id="ue_vW4s7sXcAaxeZuPDn-20" value="&lt;h1&gt;* Footnotes&lt;/h1&gt;&lt;p&gt;HTML5 Application Repository Service can host any web app such as SAP Fiori, Angular, React, Vue, etc.&lt;br&gt;&lt;/p&gt;&lt;p&gt;CAPM (Cloud Application Programming Model) apps could be developed in Node.js or Java.&lt;/p&gt;&lt;p&gt;Communication between the services should go through the Destination Service. Not added to the diagram to simplify it.&lt;/p&gt;&lt;p&gt;On-premise solutions could be both SAP and non-SAP.&lt;br&gt;&lt;/p&gt;&lt;p&gt;Cloud solutions could be both SAP and non-SAP.&lt;/p&gt;&lt;p&gt;SAP Cloud Identity Services is not required to connect to On-premise or Cloud solutions.&lt;/p&gt;&lt;p&gt;&lt;/p&gt;" style="text;html=1;strokeColor=none;fillColor=none;spacing=5;spacingTop=-20;whiteSpace=wrap;overflow=hidden;rounded=0;" vertex="1" parent="1">
          <mxGeometry x="440" y="1040" width="280" height="320" as="geometry" />
        </mxCell>
        <mxCell id="ue_vW4s7sXcAaxeZuPDn-3" value="ðŸ”’" style="edgeStyle=orthogonalEdgeStyle;rounded=0;orthogonalLoop=1;jettySize=auto;html=1;exitX=1;exitY=0.5;exitDx=0;exitDy=0;entryX=0;entryY=0.5;entryDx=0;entryDy=0;" edge="1" parent="1" source="TGFZ5FQla8aGa5NZ8bja-4" target="n6dLeU8ncCITZSXHt6QS-5">
          <mxGeometry relative="1" as="geometry">
            <Array as="points">
              <mxPoint x="640" y="484" />
              <mxPoint x="640" y="334" />
            </Array>
          </mxGeometry>
        </mxCell>
        <mxCell id="vt0vl1Ip0CLTtD81e1Z3-16" value="" style="sketch=0;pointerEvents=1;shadow=0;dashed=0;html=1;strokeColor=none;labelPosition=center;verticalLabelPosition=bottom;verticalAlign=top;align=center;fillColor=#505050;shape=mxgraph.mscae.intune.device_group;fontColor=#0A6ED1;" parent="1" vertex="1">
          <mxGeometry x="35" y="260" width="50" height="50" as="geometry" />
        </mxCell>
        <mxCell id="vt0vl1Ip0CLTtD81e1Z3-21" value="" style="shape=image;verticalLabelPosition=bottom;verticalAlign=top;imageAspect=0;aspect=fixed;image=data:image/svg+xml,PHN2ZyB4bWxucz0iaHR0cDovL3d3dy53My5vcmcvMjAwMC9zdmciIGlkPSJkYXRhLXByaXZhY3ktaW50ZWdyYXRpb24iIHZpZXdCb3g9IjMuOTk5OTk5MDQ2MzI1NjgzNiA0IDQ4IDQ4IiB3aWR0aD0iNDgiIGhlaWdodD0iNDgiPjxkZWZzPjxzdHlsZT4uY2xzLTF7ZmlsbDojMDUzYjcwO30uY2xzLTJ7ZmlsbDojMGE2ZWQxO308L3N0eWxlPjwvZGVmcz48cGF0aCBjbGFzcz0iY2xzLTEiIGQ9Ik0yMy4yNiwzMi44M2ExMy40NzgsMTMuNDc4LDAsMCwxLS44Ny0yLjg4QTUuNjg3LDUuNjg3LDAsMCwxLDE5LDMxYTYuMSw2LjEsMCwwLDEtNi02LDYuMSw2LjEsMCwwLDEsNi02LDUuNiw1LjYsMCwwLDEsMywuNzhWMTYuNTFBOC44NjgsOC44NjgsMCwwLDAsMTksMTZhOC41ODMsOC41ODMsMCwwLDAtNi4zNiwyLjY0LDguOTgxLDguOTgxLDAsMCwwLDAsMTIuNzJBOC41ODMsOC41ODMsMCwwLDAsMTksMzRhOC42LDguNiwwLDAsMCw0LjI5LTEuMDhDMjMuMjksMzIuODksMjMuMjYsMzIuODYsMjMuMjYsMzIuODNaTTMzLjg1LDQ0LjExYy0uMTgtLjA5LS4zNi0uMjEtLjU3LS4zM2EyNi4xNDUsMjYuMTQ1LDAsMCwxLTMuNTQtMi40M0E4LjY0Miw4LjY0MiwwLDAsMSwzMSw0NnYzSDdWNDZhOC43LDguNywwLDAsMSwyLjY0LTYuMzZBOC41ODMsOC41ODMsMCwwLDEsMTYsMzdoNmE4LjY3Nyw4LjY3NywwLDAsMSw0LjUsMS4xNywxOC41NTYsMTguNTU2LDAsMCwxLTIuNC0zLjUxYy0uMDktLjE1LS4xOC0uMzMtLjI3LS41MUE5LjA0Niw5LjA0NiwwLDAsMCwyMiwzNEgxNmExMS41NiwxMS41NiwwLDAsMC00LjYyLjkzLDEyLjE4LDEyLjE4LDAsMCwwLTMuODQsMi41OCwxMi4wMTgsMTIuMDE4LDAsMCwwLTIuNTgsMy44NEExMS43MywxMS43MywwLDAsMCw0LDQ2djZIMzRWNDZBMTIuNywxMi43LDAsMCwwLDMzLjg1LDQ0LjExWiIvPjxwYXRoIGNsYXNzPSJjbHMtMiIgZD0iTTM4LjUsNy43MDlsLjk0LjY3MmExNS4xODcsMTUuMTg3LDAsMCwwLDcuODEzLDIuNTQ2TDQ5LDEwLjkzNCw0OSwyNi4yYzAsOC44NS05LjQ2OCwxMy4wNjQtOS44NjgsMTMuMjQxbC0uNjMyLjI3Mi0uNjMyLS4yNzJDMzcuNDY4LDM5LjI2MSwyOCwzNS4wNDcsMjgsMjYuMlYxMC45MzRsMS43NDctLjAwN0ExNS4xODcsMTUuMTg3LDAsMCwwLDM3LjU2LDguMzgxbC45NC0uNjcyTTM4LjUsNCwzNi43NjMsNS4yNDNsLS45NC42NzNBMTIuMjgyLDEyLjI4MiwwLDAsMSwyOS43MDksNy45bC0xLjcyMi4wMDdMMjUsNy45MjRWMjYuMmMwLDEwLjU0OCwxMC40NjksMTUuNDgyLDExLjY2MywxNi4wMWwuNjU2LjI4M0wzOC41LDQzbDEuMTgxLS41MS42MzItLjI3M0M0MS41MzEsNDEuNjc5LDUyLDM2Ljc0NSw1MiwyNi4ybDAtMTUuMjYzVjcuOTI0TDQ5LjAxLDcuOTEsNDcuMjY3LDcuOWExMi4yODgsMTIuMjg4LDAsMCwxLTYuMDg4LTEuOTg1bC0uOTQyLS42NzVMMzguNSw0WiIvPjxwYXRoIGNsYXNzPSJjbHMtMSIgZD0iTTM5LjQ0NywyNi40NGwxLjA1LDIuMTloLTQuMDJsMS4wNS0yLjE5YTIuNzU3LDIuNzU3LDAsMCwxLS42Ni0uNjYsMS42MTUsMS42MTUsMCwwLDEtLjI3LS45MywxLjY0NCwxLjY0NCwwLDAsMSwuNTctMS4zMiwxLjg4MywxLjg4MywwLDAsMSwyLjY0LDAsMS42NDQsMS42NDQsMCwwLDEsLjU3LDEuMzIsMS42MTUsMS42MTUsMCwwLDEtLjI3LjkzQTIuNzU3LDIuNzU3LDAsMCwxLDM5LjQ0NywyNi40NFoiLz48cGF0aCBjbGFzcz0iY2xzLTEiIGQ9Ik00MS4yNDcsMTYuOTNhMi44NTIsMi44NTIsMCwwLDEsLjAzLjQydjMuNzhIMzUuN1YxNy4zNWEyLjg1MiwyLjg1MiwwLDAsMSwuMDMtLjQyLDEuMTEsMS4xMSwwLDAsMSwuMjctLjY2LDIuMDM0LDIuMDM0LDAsMCwxLC44NC0uNTQsNC4zMTMsNC4zMTMsMCwwLDEsMS41OS0uMjRoLjEyYTQuMzEzLDQuMzEzLDAsMCwxLDEuNTkuMjQsMi4wMzQsMi4wMzQsMCwwLDEsLjg0LjU0QTEuMTEsMS4xMSwwLDAsMSw0MS4yNDcsMTYuOTNaIi8+PHBhdGggY2xhc3M9ImNscy0xIiBkPSJNNDcuMjQ3LDEwLjkzYTE1LjI3OCwxNS4yNzgsMCwwLDEtNy44LTIuNTVsLS45Ni0uNjYtLjkzLjY2YTE1LjI3OCwxNS4yNzgsMCwwLDEtNy44LDIuNTVoLTEuNzdWMjYuMmMwLDguODUsOS40OCwxMy4wNSw5Ljg3LDEzLjIzbC42My4yNy42Ni0uMjdjLjM5LS4xOCw5Ljg0LTQuMzgsOS44NC0xMy4yM1YxMC45M1ptLTIuMTksMTcuN2ExLjcwOSwxLjcwOSwwLDAsMS0uMywxLjA4LDEuNzg2LDEuNzg2LDAsMCwxLS42My41NCwxLjk0OSwxLjk0OSwwLDAsMS0uOTMuMjRoLTkuNDJhMS45NDksMS45NDksMCwwLDEtLjkzLS4yNCwxLjc4NiwxLjc4NiwwLDAsMS0uNjMtLjU0LDEuNzA5LDEuNzA5LDAsMCwxLS4zLTEuMDhWMjIuOTlhMS42NzUsMS42NzUsMCwwLDEsLjMtMS4wNSwxLjcwNiwxLjcwNiwwLDAsMSwuNjMtLjYsMS45MjgsMS45MjgsMCwwLDEsLjkzLS4yMWguMDNWMTcuMzVhNCw0LDAsMCwxLC4yMS0xLjI5LDIuNzQ1LDIuNzQ1LDAsMCwxLC43Mi0xLjIsNC4zODUsNC4zODUsMCwwLDEsMS40MS0uOSw2LjIxLDYuMjEsMCwwLDEsMi4yOC0uMzNoLjEyYTYuMjEsNi4yMSwwLDAsMSwyLjI4LjMzLDQuMzg1LDQuMzg1LDAsMCwxLDEuNDEuOSwyLjc0NSwyLjc0NSwwLDAsMSwuNzIsMS4yLDQsNCwwLDAsMSwuMjEsMS4yOXYzLjc4aC4wM2ExLjkyOCwxLjkyOCwwLDAsMSwuOTMuMjEsMS43MDYsMS43MDYsMCwwLDEsLjYzLjYsMS42NzUsMS42NzUsMCwwLDEsLjMsMS4wNVoiLz48L3N2Zz4=;dashed=1;labelBackgroundColor=none;strokeColor=#000000;fontSize=10;fontColor=#000000;fillColor=#000000;" parent="1" vertex="1">
          <mxGeometry x="36" y="160" width="48" height="48" as="geometry" />
        </mxCell>
        <mxCell id="vt0vl1Ip0CLTtD81e1Z3-20" style="edgeStyle=orthogonalEdgeStyle;rounded=0;orthogonalLoop=1;jettySize=auto;html=1;exitX=0.5;exitY=1;exitDx=0;exitDy=0;entryX=0.5;entryY=0;entryDx=0;entryDy=0;entryPerimeter=0;labelBackgroundColor=default;strokeColor=#000000;strokeWidth=1;fontSize=10;fontColor=#000000;startArrow=none;startFill=0;endArrow=classic;endFill=1;" parent="1" source="vt0vl1Ip0CLTtD81e1Z3-21" target="vt0vl1Ip0CLTtD81e1Z3-16" edge="1">
          <mxGeometry relative="1" as="geometry" />
        </mxCell>
      </root>
    </mxGraphModel>
  </diagram>
</mxfile>
